Coordinates
version=1
nRows=26
nColumns=24
inDegrees=yes

Units are S.I. units (second, meters, Newtons, ...)
Angles are in degrees.

endheader
time	pelvis_tilt	pelvis_list	pelvis_rotation	pelvis_tx	pelvis_ty	pelvis_tz	hip_flexion_r	hip_adduction_r	hip_rotation_r	knee_angle_r	ankle_angle_r	subtalar_angle_r	mtp_angle_r	hip_flexion_l	hip_adduction_l	hip_rotation_l	knee_angle_l	ankle_angle_l	subtalar_angle_l	mtp_angle_l	lumbar_extension	lumbar_bending	lumbar_rotation
      4.81500000	     -9.59254386	     -9.21873624	      5.58844036	     -1.48628573	     -0.02515031	      0.44541696	     22.27731738	     11.14437168	     -6.95330096	    -16.88929669	     -4.57036189	     -6.78444866	      4.27775578	     17.55490787	    -10.50934275	      4.31146037	    -60.82550054	    -26.65573007	     -5.49406641	     24.89093721	      8.67840741	      7.31088386	     -8.01723197
      4.82000000	     -9.47702289	     -9.04671449	      5.47831813	     -1.48026918	     -0.02432794	      0.44620611	     21.58115415	     11.17415670	     -6.60863372	    -16.69345860	     -4.29378866	     -6.85814781	      4.19572144	     18.24111573	    -10.27897059	      4.36348563	    -61.55694559	    -26.30802666	     -7.25813173	     24.07222449	      8.52140897	      7.10416683	     -7.78923985
      4.82500000	     -9.37899116	     -8.83295091	      5.35135659	     -1.47426828	     -0.02347276	      0.44700908	     20.88692444	     11.15756074	     -6.24827595	    -16.47800872	     -4.01469727	     -6.90888299	      4.12738081	     18.92002759	    -10.00959151	      4.39033908	    -62.17922995	    -25.90219578	     -8.78288864	     23.38308412	      8.37950201	      6.85414526	     -7.53804577
      4.83000000	     -9.30257512	     -8.57649935	      5.20382733	     -1.46831007	     -0.02258205	      0.44782613	     20.20358269	     11.09209470	     -5.87521162	    -16.24583586	     -3.74484879	     -6.92846781	      4.07929006	     19.59280921	     -9.69996134	      4.39136445	    -62.68574722	    -25.41456621	    -10.05106666	     22.84143044	      8.25388890	      6.56192195	     -7.26271089
      4.83500000	     -9.25043807	     -8.28146827	      5.03853994	     -1.46239417	     -0.02166793	      0.44864968	     19.53622982	     10.97935961	     -5.49902280	    -15.99765315	     -3.48386266	     -6.92249846	      4.05276842	     20.26425723	     -9.35330055	      4.36968748	    -63.07994753	    -24.83716827	    -11.06111618	     22.45400072	      8.14737270	      6.23054348	     -6.96369820
      4.84000000	     -9.22298651	     -7.95611020	      4.86153953	     -1.45652947	     -0.02073551	      0.44947363	     18.88739717	     10.82621500	     -5.12714459	    -15.73024695	     -3.23956233	     -6.89245859	      4.04259934	     20.93831536	     -8.97792387	      4.32738089	    -63.36198775	    -24.18005453	    -11.83821716	     22.20721038	      8.06241300	      5.87226386	     -6.64422526
      4.84500000	     -9.22119455	     -7.59646490	      4.67138271	     -1.45069241	     -0.01978860	      0.45029113	     18.25826272	     10.62867043	     -4.75240612	    -15.44827631	     -3.00917562	     -6.84708612	      4.04382686	     21.61063854	     -8.57014796	      4.25558365	    -63.52917581	    -23.46084875	    -12.42082677	     22.06963407	      8.00152339	      5.47835867	     -6.31028321
      4.85000000	     -9.24420183	     -7.18690076	      4.45658502	     -1.44491227	     -0.01883518	      0.45110901	     17.65503204	     10.37354029	     -4.35724935	    -15.16524547	     -2.77921404	     -6.79723530	      4.05586642	     22.27829790	     -8.11728193	      4.13876260	    -63.58468712	    -22.69577965	    -12.82149587	     22.01642353	      7.95724795	      5.04077650	     -5.96640038
      4.85500000	     -9.28417819	     -6.75039113	      4.16767851	     -1.43913482	     -0.01787522	      0.45200213	     17.06066409	     10.10308877	     -3.87402824	    -14.87202370	     -2.55478151	     -6.70215166	      4.07282850	     22.91815836	     -7.67474421	      3.92555512	    -63.52866379	    -21.84402504	    -13.01099364	     21.99128647	      7.92787051	      4.58821703	     -5.52514670
      4.86000000	     -9.35250095	     -6.26301376	      3.91536815	     -1.43344275	     -0.01690939	      0.45282706	     16.51801661	      9.75370001	     -3.47114561	    -14.59828462	     -2.37375056	     -6.64906387	      4.08330056	     23.56881312	     -7.15395472	      3.74353182	    -63.35335262	    -20.98404986	    -13.06616463	     22.07362072	      7.92227780	      4.07817952	     -5.13976179
      4.86500000	     -9.43321023	     -5.76400378	      3.62065829	     -1.42778025	     -0.01599503	      0.45369824	     15.99254631	      9.39745618	     -3.00432314	    -14.32599343	     -2.17434232	     -6.59176358	      4.10390374	     24.20639168	     -6.64958298	      3.50497209	    -63.08620544	    -20.08134892	    -12.96449474	     22.20489727	      7.93056880	      3.56658673	     -4.71280173
      4.87000000	     -9.51894815	     -5.28186332	      3.30573964	     -1.42213323	     -0.01513674	      0.45457869	     15.46978944	      9.05846816	     -2.48433480	    -14.03716118	     -1.97631668	     -6.54813319	      4.11347335	     24.83414171	     -6.18373360	      3.23677570	    -62.73957609	    -19.14059310	    -12.71819860	     22.33805590	      7.94574083	      3.07967549	     -4.27860552
      4.87500000	     -9.61714055	     -4.77154493	      2.99444423	     -1.41654017	     -0.01429504	      0.45543907	     14.98865753	      8.67682496	     -2.04618450	    -13.77800384	     -1.82234227	     -6.52019059	      4.12245399	     25.44900809	     -5.68295866	      2.96841562	    -62.28292408	    -18.27292336	    -12.47964244	     22.47772712	      7.97442004	      2.56253280	     -3.84676429
      4.88000000	     -9.71233920	     -4.28738860	      2.66173601	     -1.41095023	     -0.01352406	      0.45627457	     14.50116009	      8.32010435	     -1.56689838	    -13.50070573	     -1.66313176	     -6.49571152	      4.12393459	     26.04494858	     -5.22779483	      2.67302918	    -61.75194763	    -17.42258849	    -12.19560615	     22.60461691	      8.00793457	      2.08980937	     -3.39988215
      4.88500000	     -9.80352761	     -3.82467304	      2.32999379	     -1.40537493	     -0.01282481	      0.45708938	     14.01763345	      7.97826169	     -1.10045927	    -13.22294372	     -1.51081609	     -6.48491004	      4.11396424	     26.62380640	     -4.80059402	      2.37877165	    -61.14675620	    -16.63086557	    -11.94221536	     22.69380037	      8.04136886	      1.64105751	     -2.97354095
      4.89000000	     -9.87293197	     -3.41486484	      1.95010566	     -1.39977401	     -0.01219843	      0.45793961	     13.49400956	      7.69924506	     -0.55355641	    -12.90563719	     -1.36344396	     -6.46252834	      4.08686376	     27.16527364	     -4.46673029	      2.04207391	    -60.48771718	    -15.86980315	    -11.66277526	     22.72268131	      8.06393542	      1.26248969	     -2.49282315
      4.89500000	     -9.93327743	     -3.02127988	      1.57793879	     -1.39418663	     -0.01163730	      0.45873015	     12.97736406	      7.42457331	     -0.07014738	    -12.60419961	     -1.23016903	     -6.46002391	      4.04397851	     27.68084252	     -4.14830476	      1.70789240	    -59.75330378	    -15.19063809	    -11.48995811	     22.69158674	      8.07954696	      0.91032676	     -2.04058132
      4.90000000	     -9.97322797	     -2.66539638	      1.19344962	     -1.38859866	     -0.01114830	      0.45949456	     12.43765133	      7.18354509	      0.42123409	    -12.29078037	     -1.09715619	     -6.45467392	      3.98320920	     28.16180075	     -3.88284780	      1.36203140	    -58.95925840	    -14.57855640	    -11.40354660	     22.59578738	      8.07927226	      0.60586360	     -1.58616047
      4.90500000	    -10.00628706	     -2.33237194	      0.81308742	     -1.38301530	     -0.01073285	      0.46022215	     11.90159643	      6.95565110	      0.86145512	    -11.98535784	     -0.96617795	     -6.44772800	      3.91287317	     28.61986184	     -3.64297746	      1.02291293	    -58.09827637	    -14.04735789	    -11.41980182	     22.45479728	      8.07575893	      0.33111816	     -1.16174167
      4.91000000	    -10.00929261	     -2.04543274	      0.41560562	     -1.37738848	     -0.01038006	      0.46097237	     11.31722178	      6.77379830	      1.34339119	    -11.65223533	     -0.82574047	     -6.42875802	      3.81989871	     29.03297277	     -3.47923852	      0.65367132	    -57.18936553	    -13.58986151	    -11.51001847	     22.22457402	      8.05034971	      0.10588148	     -0.70685376
      4.91500000	    -10.00287773	     -1.78595608	      0.01793367	     -1.37177200	     -0.01009864	      0.46164881	     10.72360238	      6.60710301	      1.79579800	    -11.31019350	     -0.68262681	     -6.40655358	      3.71557401	     29.42320778	     -3.34010548	      0.29774329	    -56.22965200	    -13.19533902	    -11.67882466	     21.92668616	      8.01567388	     -0.07715922	     -0.28656618
      4.92000000	     -9.95697690	     -1.57251404	     -0.38639311	     -1.36616382	     -0.00985730	      0.46232843	     10.07642111	      6.48171749	      2.26245055	    -10.94298802	     -0.54661953	     -6.37341094	      3.58018671	     29.76599985	     -3.27107801	     -0.08758220	    -55.23453236	    -12.86520178	    -11.90725827	     21.50610407	      7.93769406	     -0.21110224	      0.16547209
      4.92500000	     -9.93337913	     -1.35396739	     -0.77173885	     -1.36055901	     -0.00969570	      0.46297108	      9.46992939	      6.33670333	      2.66828025	    -10.59948880	     -0.39923057	     -6.33605107	      3.46442022	     30.10746995	     -3.18535768	     -0.44301879	    -54.16484926	    -12.54669627	    -12.16186097	     21.07608360	      7.88467739	     -0.35368265	      0.55100089
      4.93000000	     -9.86606516	     -1.18393048	     -1.15301802	     -1.35496351	     -0.00956601	      0.46355880	      8.80012129	      6.22899458	      3.09099630	    -10.22468861	     -0.24463220	     -6.28433651	      3.32236130	     30.39917298	     -3.15938094	     -0.81566151	    -53.06995670	    -12.26345600	    -12.42576424	     20.52003687	      7.78236581	     -0.43431004	      0.95807718
      4.93500000	     -9.83485131	     -0.99196067	     -1.52575027	     -1.34936734	     -0.00949390	      0.46414100	      8.18858510	      6.08785001	      3.44252961	     -9.87493235	     -0.09588715	     -6.21809488	      3.21216621	     30.69669327	     -3.11125683	     -1.18131029	    -51.88813506	    -11.98169528	    -12.64733003	     20.00574476	      7.72066523	     -0.54521295	      1.32655074
      4.94000000	     -9.82748286	     -0.80193124	     -1.85536425	     -1.34380081	     -0.00951237	      0.46461848	      7.61014462	      5.92921807	      3.79533823	     -9.53812218	      0.08932108	     -6.14566431	      3.13379938	     31.00268053	     -3.03382134	     -1.48049206	    -50.64201090	    -11.68558810	    -12.83613368	     19.54287120	      7.67952819	     -0.65190207	      1.62704368
